<svg fill="none" height="24" viewBox="0 0 24 24" width="24" xmlns="http://www.w3.org/2000/svg" xmlns:xlink="http://www.w3.org/1999/xlink"><clipPath id="a"><path d="m0 0h24v24h-24z"/></clipPath><g clip-path="url(#a)"><path d="m17 0c-.2652 0-.5196.105357-.7071.292893-.1875.187537-.2929.441891-.2929.707107 0 2.949-2.583 4-5 4h-7c-1.06087 0-2.07828.42143-2.82843 1.17157-.750143.75015-1.17157 1.76756-1.17157 2.82843v2c.00218416.5987.139462 1.1893.401603 1.7276.26214.5383.642387 1.0105 1.112397 1.3814l3.572 7.972c.25404.5711.66817 1.0563 1.19227 1.3969s1.13569.5219 1.76073.5221c.49731-.0003.98665-.125 1.42347-.3627s.80723-.5809 1.07753-.9983c.2704-.4175.432-.8959.4703-1.3917.0382-.4958-.0482-.9934-.2513-1.4473l-2.2-4.8h2.441c2.417 0 5 1.051 5 4 0 .2652.1054.5196.2929.7071s.4419.2929.7071.2929.5196-.1054.7071-.2929.2929-.4419.2929-.7071v-18c0-.265216-.1054-.51957-.2929-.707107-.1875-.187536-.4419-.292893-.7071-.292893zm-8.063 20.619c.06624.1496.09409.3133.08104.4764-.01304.1631-.06659.3203-.15577.4575-.08918.1371-.21118.2498-.35494.3279s-.30474.1191-.46833.1192c-.23861-.0002-.47203-.0696-.67191-.1999-.19989-.1303-.35764-.3159-.45409-.5341l-2.808-6.266h2.254zm7.063-6.019c-1.4287-1.1008-3.1976-1.6669-5-1.6h-7c-.53043 0-1.03914-.2107-1.41421-.5858-.37508-.3751-.58579-.8838-.58579-1.4142v-2c0-.53043.21071-1.03914.58579-1.41421.37507-.37508.88378-.58579 1.41421-.58579h7c1.8018.0683 3.5706-.49597 5-1.595zm7.9.852c-.0587.1176-.1399.2224-.2391.3086-.0992.0861-.2144.1519-.3391.1935-.1246.0416-.2562.0582-.3873.049-.131-.0093-.259-.0443-.3765-.1031l-2-1c-.2374-.1186-.4179-.3265-.5019-.5782-.0841-.2517-.0646-.5264.0539-.7638.1186-.2374.3265-.4179.5782-.5019.2517-.0841.5264-.0647.7638.0539l2 1c.2361.1185.4158.3256.4998.5761.0839.2505.0653.5241-.0518.7609zm-3.79-9c-.0588-.11752-.0938-.24547-.1031-.37654-.0092-.13106.0074-.26267.049-.3873s.1074-.23984.1935-.33904c.0862-.09921.191-.18046.3086-.23912l2-1c.2374-.11855.5121-.13795.7638-.05394.2517.08402.4597.26457.5782.50194.1186.23737.138.51211.0539.76378-.084.25168-.2645.45967-.5019.57822l-2 1c-.1175.05876-.2455.09378-.3765.10306-.1311.00928-.2627-.00735-.3873-.04896-.1247-.0416-.2399-.10736-.3391-.19352-.0992-.08615-.1804-.19101-.2391-.30858zm-.11 3.548c0-.26522.1054-.51957.2929-.70711.1875-.18753.4419-.29289.7071-.29289h2c.2652 0 .5196.10536.7071.29289.1875.18754.2929.44189.2929.70711 0 .2652-.1054.5196-.2929.7071s-.4419.2929-.7071.2929h-2c-.2652 0-.5196-.1054-.7071-.2929s-.2929-.4419-.2929-.7071z" fill="#1dc071"/></g></svg>