<svg fill="none" height="20" viewBox="0 0 20 20" width="20" xmlns="http://www.w3.org/2000/svg"><g style="fill-rule:evenodd;clip-rule:evenodd;stroke:#1dc071;stroke-width:2;stroke-linecap:round;stroke-linejoin:round"><path d="m1 4.5c0-2.62521.02811-3.5 3.5-3.5s3.5.87479 3.5 3.5.01107 3.5-3.5 3.5c-3.511073 0-3.5-.87479-3.5-3.5z"/><path d="m12 4.5c0-2.62521.0281-3.5 3.5-3.5s3.5.87479 3.5 3.5.0111 3.5-3.5 3.5-3.5-.87479-3.5-3.5z"/><path d="m1 15.5c0-2.6252.02811-3.5 3.5-3.5s3.5.8748 3.5 3.5.01107 3.5-3.5 3.5c-3.511073 0-3.5-.8748-3.5-3.5z"/><path d="m12 15.5c0-2.6252.0281-3.5 3.5-3.5s3.5.8748 3.5 3.5.0111 3.5-3.5 3.5-3.5-.8748-3.5-3.5z"/></g></svg>