<svg fill="none" height="24" viewBox="0 0 24 24" width="24" xmlns="http://www.w3.org/2000/svg"><path d="m5 6.64513v-1.09413c0-2.12024 0-3.18036.67965-3.77772.67966-.59737 1.73101-.46131 3.83372-.1892l7.25663.9391c2.4911.32238 3.7367.48357 4.4833 1.33308.7467.84951.7467 2.10544.7467 4.6173v7.05284c0 2.5119 0 3.7678-.7467 4.6173-.7466.8496-1.9922 1.0107-4.4833 1.3331l-7.25663.9391c-2.10271.2721-3.15406.4082-3.83372-.1892-.67965-.5973-.67965-1.6575-.67965-3.7777v-.8764" stroke="#1dc071" stroke-width="2"/><path d="m15 12 .8107-.5855.4228.5855-.4228.5855zm-14 1c-.552285 0-1-.4477-1-1s.447715-1 1-1zm10.4773-7.58549 4.3334 5.99999-1.6214 1.171-4.33331-6.00001zm4.3334 7.17099-4.3334 6-1.62131-1.171 4.33331-6zm-.8107.4145h-14v-2h14z" fill="#1dc071"/></svg>