<svg fill="none" height="40" viewBox="0 0 32 40" width="32" xmlns="http://www.w3.org/2000/svg"><g fill="#fff"><path d="m22.4997 9.979h-13.33336c-.5 0-.83333.3333-.83333.8333s.33333.8334.83333.8334h13.33336c.5 0 .8333-.3334.8333-.8334s-.3333-.8333-.8333-.8333z"/><path d="m8.4999 7.81266c0 .33334.33334.5.66667.5h13.33333c.3333 0 .6667-.16666.6667-.5l3.3333-6.66666c.1667-.333337.1667-.666671-.1667-1.000004-.1666-.1666666-.5-.1666666-.8333 0l-6.1667 3.000004-2.8333-2.833337c-.3333-.3333336-.8333-.3333336-1.1667 0l-3 2.833337-6.16663-3.000004c-.33333-.1666666-.66667-.1666666-1 0-.33333.166667-.16667.666667 0 1.000004z"/><path d="m23.1667 13.6456c-.1667-.1667-.5-.3333-.6667-.3333h-13.33333c-.16667 0-.5.1666-.66667.3333-.33333.3333-8.5 9-8.5 13.8333 0 6.8334 7.16667 12.5 15.8333 12.5 8.6667 0 15.8334-5.6666 15.8334-12.5 0-4.8333-8.1667-13.5-8.5-13.8333zm-6.5 19.6667v.8333c0 .5-.3334.8333-.8334.8333s-.8333-.3333-.8333-.8333v-.8333c-1.8333-.3334-3.1667-1.5-3.3333-3 0-.5.3333-.8334.8333-.8334s.8333.3334.8333.8334c0 .6666.8334 1.3333 1.6667 1.5v-3.3334c-2.1667-.5-3.3333-1.6666-3.3333-3.1666 0-1.6667 1.5-3 3.3333-3.3334v-.8333c0-.5.3333-.8333.8333-.8333s.8334.3333.8334.8333v.5c1.8333.3333 3.1666 1.5 3.3333 3 0 .5-.3333.8333-.8333.8333s-.8334-.3333-.8334-.8333c0-.6667-.8333-1.3333-1.6666-1.5v3.3333c2.1666.5 3.3333 1.6667 3.3333 3.1667 0 2-1.5 3.3333-3.3333 3.6667z"/><path d="m16.667 28.4785v3c1-.1666 1.6667-.8333 1.6667-1.5 0-.6666-.5-1.1667-1.6667-1.5z"/><path d="m13.333 24.9788c0 .6666.5 1.1666 1.6667 1.5v-3c-1 .1666-1.6667.8333-1.6667 1.5z"/></g></svg>