<svg fill="none" height="24" viewBox="0 0 24 24" width="24" xmlns="http://www.w3.org/2000/svg"><path d="m18.1111 8.14286v-2.57143c0-.68199-.2575-1.33604-.716-1.81828-.4584-.48223-1.0801-.75315-1.7284-.75315h-12.22226c-.6483 0-1.27006.27092-1.72848.75315-.45842.48224-.71596 1.13629-.71596 1.81828v7.71427c0 .682.25754 1.3361.71596 1.8183s1.08018.7531 1.72848.7531h2.44445m2.44444 5.1429h12.22227c.6483 0 1.27-.2709 1.7284-.7532.4585-.4822.716-1.1362.716-1.8182v-7.7143c0-.682-.2575-1.33605-.716-1.81829-.4584-.48224-1.0801-.75315-1.7284-.75315h-12.22227c-.6483 0-1.27006.27091-1.72848.75315s-.71596 1.13629-.71596 1.81829v7.7143c0 .682.25754 1.336.71596 1.8182.45842.4823 1.08018.7532 1.72848.7532zm8.55557-6.4286c0 .682-.2576 1.3361-.716 1.8183s-1.0801.7532-1.7285.7532c-.6483 0-1.27-.271-1.7284-.7532-.4585-.4822-.716-1.1363-.716-1.8183s.2575-1.336.716-1.8182c.4584-.4823 1.0801-.7532 1.7284-.7532.6484 0 1.2701.2709 1.7285.7532.4584.4822.716 1.1362.716 1.8182z" stroke="#1dc071" stroke-linecap="round" stroke-linejoin="round" stroke-width="2"/></svg>