<svg fill="none" height="18" viewBox="0 0 19 18" width="19" xmlns="http://www.w3.org/2000/svg" xmlns:xlink="http://www.w3.org/1999/xlink"><clipPath id="a"><path d="m.470215 0h18v18h-18z"/></clipPath><g clip-path="url(#a)"><path d="m16.9702 16.5-3.75-3.75m1.875-4.6875c0 .8618-.1697 1.71516-.4995 2.5114-.3298.7962-.8132 1.5196-1.4226 2.129s-1.3328 1.0928-2.129 1.4226-1.64959.4995-2.51139.4995c-.86179 0-1.71516-.1697-2.51136-.4995-.79619-.3298-1.51964-.8132-2.12902-1.4226-.60939-.6094-1.09278-1.3328-1.42257-2.129-.3298-.79624-.49955-1.6496-.49955-2.5114 0-1.74048.69141-3.40968 1.92212-4.64039 1.2307-1.23071 2.8999-1.92211 4.64038-1.92211 1.74049 0 3.40969.6914 4.64039 1.92211s1.9221 2.89991 1.9221 4.64039z" stroke="#fff" stroke-linecap="round" stroke-linejoin="round" stroke-width="2"/></g></svg>