<svg fill="none" height="24" viewBox="0 0 24 24" width="24" xmlns="http://www.w3.org/2000/svg"><path d="m12 18.5455c-1.736 0-3.40082-.6897-4.62833-1.9172-1.22752-1.2275-1.91712-2.8923-1.91712-4.6283s.6896-3.40082 1.91712-4.62833c1.22751-1.22752 2.89233-1.91712 4.62833-1.91712s3.4008.6896 4.6283 1.91712c1.2275 1.22751 1.9172 2.89233 1.9172 4.62833s-.6897 3.4008-1.9172 4.6283-2.8923 1.9172-4.6283 1.9172zm0-2.1819c1.1573 0 2.2672-.4597 3.0856-1.278.8183-.8184 1.278-1.9283 1.278-3.0856s-.4597-2.26722-1.278-3.08556c-.8184-.81834-1.9283-1.27808-3.0856-1.27808s-2.26722.45974-3.08556 1.27808-1.27808 1.92826-1.27808 3.08556.45974 2.2672 1.27808 3.0856c.81834.8183 1.92826 1.278 3.08556 1.278zm-1.0909-15.27269c0-.602493.4884-1.09091 1.0909-1.09091s1.0909.488417 1.0909 1.09091v1.09091c0 .60249-.4884 1.09091-1.0909 1.09091s-1.0909-.48842-1.0909-1.09091zm0 20.72729c0-.6025.4884-1.0909 1.0909-1.0909s1.0909.4884 1.0909 1.0909v1.0909c0 .6025-.4884 1.0909-1.0909 1.0909s-1.0909-.4884-1.0909-1.0909zm-7.39419-16.76075c-.42596-.42596-.42596-1.11658 0-1.54254s1.11658-.42596 1.54254 0l.77128.77127c.42596.42596.42596 1.11659 0 1.54255s-1.11659.42596-1.54255 0zm14.65639 14.65635c-.426-.4259-.426-1.1166 0-1.5425.4259-.426 1.1166-.426 1.5425 0l.7713.7712c.426.426.426 1.1166 0 1.5426s-1.1166.426-1.5426 0zm.7708-16.19916c.4261-.42634 1.1173-.4263 1.5434.00009.4258.4261.4256 1.11668-.0003 1.54263l-.7713.77128c-.426.42601-1.1167.42601-1.5427 0-.426-.42594-.426-1.11651-.0002-1.54255zm-14.65592 14.65666c.42596-.426 1.11659-.426 1.54255 0 .42596.4259.42596 1.1166 0 1.5425l-.77127.7713c-.42597.426-1.11659.426-1.54255 0s-.42596-1.1166 0-1.5426zm18.62292-7.2622c.6025 0 1.0909.4884 1.0909 1.0909s-.4884 1.0909-1.0909 1.0909h-1.0909c-.6025 0-1.0909-.4884-1.0909-1.0909s.4884-1.0909 1.0909-1.0909zm-20.72728 0c.60249 0 1.09091.4884 1.09091 1.0909s-.48842 1.0909-1.09091 1.0909h-1.09091c-.602493 0-1.09091-.4884-1.09091-1.0909s.488417-1.0909 1.09091-1.0909z" fill="#808191"/></svg>