<svg fill="none" height="24" viewBox="0 0 24 24" width="24" xmlns="http://www.w3.org/2000/svg" xmlns:xlink="http://www.w3.org/1999/xlink"><clipPath id="a"><path d="m0 0h24v24h-24z"/></clipPath><g clip-path="url(#a)"><path d="m4.46098 11h-2.36098c-.60751 0-1.1-.4974-1.1-1.11111v-7.77778c0-.61365.49249-1.11111 1.1-1.11111h19.8c.6075 0 1.1.49746 1.1 1.11111v7.77778c0 .61371-.4925 1.11111-1.1 1.11111h-2.0793" stroke="#1dc071" stroke-width="2"/><path d="m19.4286 6h-14.85717c-.3156 0-.57143.24551-.57143.54839v15.90321c0 .3029.25583.5484.57143.5484h14.85717c.3156 0 .5714-.2455.5714-.5484v-15.90321c0-.30288-.2558-.54839-.5714-.54839z" stroke="#1dc071" stroke-width="2"/><path d="m15 16.3794c0 .4359-.1051.8465-.3152 1.232-.2023.3772-.5058.6915-.9104.9429-.3969.243-.8678.3855-1.4125.4274v1.0183h-.7471v-1.0309c-.7782-.0754-1.4047-.3268-1.87943-.7542-.47467-.4359-.71977-1.0225-.73537-1.76h1.751c.0467.6034.3346.968.8638 1.0937v-2.4012c-.5603-.1508-1.0117-.3017-1.3541-.4525-.3424-.1509-.63812-.3939-.88712-.7292-.24908-.3353-.37358-.792-.37358-1.3703 0-.7291.24128-1.3241.72375-1.7851.49025-.461 1.12055-.725 1.89105-.792v-1.0183h.7471v1.0183c.7471.067 1.3424.3101 1.786.7291.4513.4191.7043.9973.7587 1.7349h-1.7626c-.0234-.243-.1051-.4526-.2452-.6286-.1323-.1844-.3112-.3143-.5369-.3897v2.376c.5836.1593 1.0428.3143 1.3774.4651.3424.1425.6381.3813.8871.7166.2491.3269.3736.7794.3736 1.3577zm-4.2957-3.872c0 .2766.0778.5029.2335.6789.1556.1676.3813.3059.677.4148v-2.1748c-.2802.0419-.502.155-.6654.3394s-.2451.4316-.2451.7417zm1.6576 5.0663c.2957-.0587.5253-.1886.6887-.3897.1712-.2011.2568-.4442.2568-.7291 0-.2766-.0818-.4987-.2452-.6663s-.3968-.3059-.7003-.4149z" fill="#1dc071"/></g></svg>